<?xml version="1.0" encoding="UTF-8" standalone="no"?>
<!-- Created with Inkscape (http://www.inkscape.org/) -->

<svg
   xmlns:dc="http://purl.org/dc/elements/1.1/"
   xmlns:cc="http://creativecommons.org/ns#"
   xmlns:rdf="http://www.w3.org/1999/02/22-rdf-syntax-ns#"
   xmlns:svg="http://www.w3.org/2000/svg"
   xmlns="http://www.w3.org/2000/svg"
   xmlns:xlink="http://www.w3.org/1999/xlink"
   xmlns:sodipodi="http://sodipodi.sourceforge.net/DTD/sodipodi-0.dtd"
   xmlns:inkscape="http://www.inkscape.org/namespaces/inkscape"
   width="45.18845cm"
   height="45.18845cm"
   viewBox="0 0 451.8845 451.8845"
   version="1.1"
   id="svg8"
   inkscape:version="0.92.4 (5da689c313, 2019-01-14)"
   sodipodi:docname="logo V2_witout_name_and_fill.svg"
   inkscape:export-filename="E:\OneDrive\Sound it out\logo V2.png"
   inkscape:export-xdpi="96"
   inkscape:export-ydpi="96">
  <defs
     id="defs2">
    <linearGradient
       inkscape:collect="always"
       id="linearGradient2384">
      <stop
         style="stop-color:#000000;stop-opacity:1;"
         offset="0"
         id="stop2380" />
      <stop
         style="stop-color:#000000;stop-opacity:0;"
         offset="1"
         id="stop2382" />
    </linearGradient>
    <clipPath
       clipPathUnits="userSpaceOnUse"
       id="clipPath4840">
      <rect
         style="fill:none;fill-opacity:1;stroke:#ff0000;stroke-width:0.26458332"
         id="rect4842"
         width="707.57141"
         height="423.33331"
         x="99.785713"
         y="161.9762"
         ry="13.637312" />
    </clipPath>
    <linearGradient
       inkscape:collect="always"
       xlink:href="#linearGradient2384"
       id="linearGradient2386"
       x1="75.874336"
       y1="-100.89722"
       x2="858.54492"
       y2="-100.89722"
       gradientUnits="userSpaceOnUse" />
  </defs>
  <sodipodi:namedview
     id="base"
     pagecolor="#ffffff"
     bordercolor="#666666"
     borderopacity="1.0"
     inkscape:pageopacity="0.0"
     inkscape:pageshadow="2"
     inkscape:zoom="0.35"
     inkscape:cx="525.0749"
     inkscape:cy="269.23095"
     inkscape:document-units="cm"
     inkscape:current-layer="layer1"
     showgrid="false"
     inkscape:window-width="2736"
     inkscape:window-height="1719"
     inkscape:window-x="-13"
     inkscape:window-y="-13"
     inkscape:window-maximized="1"
     units="cm"
     showguides="true"
     inkscape:guide-bbox="true">
    <sodipodi:guide
       position="-309.83067,607.22555"
       orientation="0,1"
       id="guide4848"
       inkscape:locked="false" />
  </sodipodi:namedview>
  <metadata
     id="metadata5">
    <rdf:RDF>
      <cc:Work
         rdf:about="">
        <dc:format>image/svg+xml</dc:format>
        <dc:type
           rdf:resource="http://purl.org/dc/dcmitype/StillImage" />
        <dc:title></dc:title>
      </cc:Work>
    </rdf:RDF>
  </metadata>
  <g
     inkscape:groupmode="layer"
     id="layer3"
     inkscape:label="Layer 3"
     style="display:none"
     transform="translate(-174.05776,-86.180542)">
    <path
       style="fill:#000000;stroke-width:0.6773333"
       d="m 83.271421,443.26042 -1.47274,-1.56765 V 336.58042 c 0,-122.12434 -1.14581,-107.81789 8.63602,-107.82744 6.8378,-0.007 19.368919,-0.99924 26.246649,-2.0789 11.72237,-1.84018 18.56794,-4.23384 37.59199,-13.14462 15.23047,-7.1339 24.49891,-10.87466 32.33818,-13.05172 5.83997,-1.62182 7.75061,-1.83038 16.42982,-1.79338 11.72571,0.0499 18.95463,1.55336 27.61738,5.7434 6.66228,3.22243 13.84538,9.63702 17.59589,15.71332 2.14248,3.4711 2.59672,3.87915 3.19545,2.8705 7.14569,-12.03805 17.10022,-19.3187 31.17792,-22.80334 4.85199,-1.201 8.10029,-1.51416 15.91735,-1.53451 8.64291,-0.0216 10.61424,0.1944 16.4298,1.80687 7.83444,2.17236 17.09636,5.90964 32.33818,13.04886 19.02406,8.91078 25.86964,11.30444 37.59202,13.14462 6.87771,1.07966 19.40883,2.07221 26.24667,2.0789 9.78195,0.01 8.63598,-14.3113 8.63598,107.92239 v 105.20724 l -1.56765,1.47273 -1.56765,1.47274 H 250.69841 84.744151 Z M 103.812,430.89841 c 11.66285,-2.02037 23.09817,-5.10835 40.03908,-10.81215 19.27346,-6.48914 31.84073,-9.8855 42.34385,-11.44358 9.26652,-1.37465 21.41018,-1.38852 26.69476,-0.0305 8.03242,2.06412 17.89642,7.60344 25.13384,14.11435 1.91738,1.72493 3.66998,3.13625 3.89464,3.13625 0.22464,0 0.40556,-42.1386 0.40198,-93.64133 l -0.007,-93.64133 -3.48804,-4.64402 c -6.94104,-9.24171 -17.57647,-16.60283 -27.65602,-19.14179 -6.03256,-1.51954 -14.74629,-0.95234 -22.35199,1.45493 -3.16653,1.00224 -12.31053,4.72006 -20.32001,8.26181 -15.88233,7.0231 -24.61557,10.12366 -34.59177,12.28105 -9.05592,1.95837 -22.08951,3.48141 -29.79276,3.48141 h -6.512549 l -0.4499,45.83175 c -0.60438,61.56924 -0.57081,145.85407 0.0581,145.8514 0.27938,-0.002 3.251179,-0.47738 6.603979,-1.05818 z m 301.07465,-38.79036 c 0,-21.91788 -0.20232,-65.00499 -0.44946,-95.74913 l -0.44943,-55.89845 -10.21857,-0.38011 c -17.19972,-0.63984 -35.68641,-4.66615 -50.17372,-10.92761 -3.72946,-1.61186 -11.433,-4.95276 -17.11898,-7.42416 -14.20138,-6.17264 -19.09169,-7.48587 -27.93116,-7.50066 -7.73764,-0.012 -11.52247,0.90975 -18.288,4.45842 -5.35034,2.80634 -13.21514,9.65479 -17.394,15.14621 l -3.60333,4.73515 v 93.64752 c 0,51.50614 0.18384,93.64752 0.40848,93.64752 0.22464,0 1.97726,-1.41132 3.89467,-3.13625 4.9722,-4.47312 10.61412,-8.16256 16.95235,-11.08579 7.46323,-3.4421 10.51577,-4.06663 19.85376,-4.06197 15.19315,0.007 28.46122,2.90282 57.40155,12.52564 18.8904,6.28116 37.42962,11.02505 45.93051,11.75288 1.1166,0.0955 1.18533,-2.20906 1.18533,-39.74921 z"
       id="path3900"
       inkscape:connector-curvature="0" />
  </g>
  <g
     inkscape:label="Layer 1"
     inkscape:groupmode="layer"
     id="layer1"
     transform="translate(-241.26739,608.13741)"
     style="display:inline">
    <rect
       id="rect3715"
       width="20.840076"
       height="106.62276"
       x="456.3501"
       y="-509.84543"
       style="fill:#00b700;fill-opacity:1;stroke-width:0.3133727"
       ry="13.964613" />
    <rect
       id="rect3715-6"
       width="20.840076"
       height="51.261486"
       x="483.13095"
       y="-478.07507"
       style="fill:#00b700;fill-opacity:1;stroke-width:0.21728602"
       ry="13.964613" />
    <rect
       id="rect3715-1"
       width="20.840076"
       height="103.53567"
       x="-449.35538"
       y="-508.43024"
       style="fill:#00b700;fill-opacity:1;stroke-width:0.30880272"
       ry="13.964613"
       transform="scale(-1,1)" />
    <rect
       id="rect3715-6-7"
       width="20.840076"
       height="51.261486"
       x="-422.57437"
       y="-478.33884"
       style="fill:#00b700;fill-opacity:1;stroke-width:0.21728602"
       ry="13.964613"
       transform="scale(-1,1)" />
    <rect
       id="rect3715-6-8-2"
       width="20.840076"
       height="29.213861"
       x="-396.57755"
       y="-465.96375"
       style="fill:#00b700;fill-opacity:1;stroke-width:0.16403282"
       ry="13.964613"
       transform="scale(-1,1)" />
    <rect
       id="rect3715-6-70"
       width="20.840076"
       height="83.266083"
       x="509.56989"
       y="-495.17084"
       style="fill:#00b700;fill-opacity:1;stroke-width:0.27693018"
       ry="13.964613" />
    <rect
       id="rect3715-6-8"
       width="20.840076"
       height="29.213861"
       x="535.60767"
       y="-468.65594"
       style="fill:#00b700;fill-opacity:1;stroke-width:0.16403282"
       ry="13.964613" />
    <path
       style="fill:#000000;fill-opacity:0.5835694;stroke-width:0.33866665"
       d="m 452.66986,-255.13754 c -1.53025,-4.4019 -4.05792,-8.82231 -6.86702,-12.0091 -3.83477,-4.35037 -15.66254,-9.56524 -26.68102,-11.76365 -8.33732,-1.66346 -11.12679,-1.88238 -23.798,-1.86772 -18.47391,0.0214 -34.77988,1.4941 -56.388,5.09284 -13.09233,2.18048 -24.59207,4.5864 -52.49333,10.98243 -12.6191,2.89279 -22.04698,4.80282 -28.448,5.76337 -5.20199,0.78063 -16.93953,1.32633 -16.72417,0.77753 0.0977,-0.24896 71.83862,-110.1872 72.30902,-110.80883 0.0959,-0.12672 21.50952,-2.74308 22.50246,-2.74944 0.3533,-0.002 4.74386,-7.63821 13.03867,-22.67644 l 12.50602,-22.67302 1.18533,0.14876 c 22.92347,2.87699 40.13272,6.30229 52.6719,10.48371 11.42026,3.80828 26.51919,11.92306 35.6038,19.1349 4.17101,3.31117 10.48494,9.47076 13.63622,13.30288 1.19172,1.4492 2.26869,2.5922 2.39326,2.54001 0.12454,-0.0522 1.60798,-1.70036 3.29645,-3.66261 9.13336,-10.61425 19.34135,-18.14952 34.80769,-25.69412 10.71145,-5.22513 20.72711,-8.3778 36.576,-11.51316 10.81923,-2.14033 30.20836,-4.97619 30.71598,-4.4925 0.12978,0.12365 5.74566,10.20704 12.4797,22.4075 6.73405,12.20048 12.34284,22.28316 12.46402,22.40598 0.12122,0.12275 5.23832,0.80598 11.37144,1.51814 8.03098,0.93253 11.31229,1.4386 11.72712,1.80869 0.31678,0.28263 16.49198,24.89786 35.94482,54.70052 19.45288,29.80267 35.65751,54.62712 36.01027,55.16546 l 0.64139,0.97878 -6.08137,-0.18972 c -9.42245,-0.29396 -18.96341,-1.95791 -43.16537,-7.52809 -44.50374,-10.2427 -65.65372,-13.66352 -93.13333,-15.06351 -25.49918,-1.29907 -40.53426,0.99303 -54.95742,8.37828 -4.71887,2.41627 -6.5603,3.84124 -8.91009,6.89496 -1.65458,2.15023 -4.09474,6.58518 -5.05711,9.19117 l -0.59406,1.60866 H 467.0645 c -13.2087,0 -14.20284,-0.041 -14.39464,-0.59266 z m -164.3647,-21.74829 c 48.52216,-11.17117 71.45555,-14.60267 103.29333,-15.45572 24.94853,-0.66845 45.72843,3.55006 58.88032,11.95327 0.99824,0.63781 1.88226,1.09238 1.96449,1.01015 0.21623,-0.21623 -4.58975,-4.47587 -7.57228,-6.71146 -17.9547,-13.45814 -47.04832,-20.08349 -81.82099,-18.6327 -18.3095,0.7639 -32.48055,2.46991 -55.59197,6.69253 -5.57797,1.01913 -10.32572,1.80945 -10.55055,1.75627 -0.23828,-0.0565 7.08239,-13.9089 17.55229,-33.21331 9.87856,-18.21413 17.85907,-33.21856 17.73445,-33.34318 -0.29982,-0.29983 -11.68015,1.09436 -12.05856,1.47727 -0.36203,0.36634 -55.90243,88.87469 -56.11179,89.41892 -0.18291,0.47543 7.61184,-1.11428 24.28126,-4.95204 z m 354.04137,-39.50792 c -15.40141,-24.56397 -28.10686,-44.78029 -28.23431,-44.92515 -0.301,-0.34216 -10.27111,-1.66995 -11.51869,-1.53403 -0.95098,0.10355 -0.88301,0.23727 15.12374,29.73739 8.84343,16.29834 16.97966,31.31987 18.0805,33.38118 l 2.00152,3.74786 -6.00643,-1.12795 c -16.26308,-3.05407 -29.21094,-5.03546 -40.38105,-6.17942 -35.19689,-3.60465 -62.72187,-1.1793 -84.328,7.43047 -9.42174,3.75444 -19.31442,10.01399 -24.384,15.42884 l -1.18533,1.26607 1.52401,-0.91305 c 10.70931,-6.41608 22.4518,-9.93714 39.28532,-11.77993 4.95041,-0.54194 25.46111,-0.52917 33.528,0.0209 27.40247,1.8684 47.76229,5.23975 89.23867,14.77687 14.21122,3.26775 24.97382,5.58619 25.15998,5.41989 0.0542,-0.0485 -12.50248,-20.18592 -27.90393,-44.7499 z m -179.02894,-14.85912 -0.0911,-29.80266 -1.08362,-2.28758 c -4.83642,-10.21003 -17.91672,-21.16933 -35.87149,-30.05485 -6.32873,-3.13198 -14.28013,-5.921 -23.60034,-8.278 -11.31915,-2.86252 -28.52107,-5.92156 -34.0172,-6.04933 l -2.84915,-0.0662 -25.21628,48.04928 c -13.86893,26.42709 -25.17223,48.09055 -25.11842,48.14098 0.0538,0.0504 2.30763,-0.19161 5.0085,-0.53791 13.28919,-1.70387 31.39745,-2.77626 47.07466,-2.7878 35.09235,-0.0258 60.14538,5.19245 78.83186,16.41988 5.78087,3.47334 11.88272,8.63115 15.34501,12.97095 l 1.49647,1.87575 0.0911,-8.89491 c 0.0501,-4.89218 0.0501,-22.30609 0,-38.69756 z m 8.71423,46.18775 c 1.913,-2.5963 8.46188,-8.59191 12.0231,-11.00733 15.92594,-10.80187 34.8371,-16.18431 64.85422,-18.45861 15.37603,-1.16501 50.30724,0.2063 66.34277,2.60442 1.84296,0.2756 3.3973,0.45461 3.4541,0.39779 0.0568,-0.0568 -11.28533,-21.81206 -25.20477,-48.34497 l -25.30806,-48.24166 -1.51402,0.0992 c -8.70499,0.57003 -28.9759,4.481 -40.85642,7.88262 -8.26772,2.36722 -11.69179,3.66168 -18.23092,6.8922 -19.76655,9.76518 -34.6476,23.26362 -36.71452,33.30332 -0.42609,2.06964 -0.53846,76.27332 -0.11546,76.25998 0.1397,-0.004 0.71121,-0.62851 1.27,-1.38691 z"
       id="path2378"
       inkscape:connector-curvature="0" />
    <path
       style="fill:#ffffff;stroke-width:2.85714293"
       d="m 816.91059,1201.5215 c -52.62652,-49.8606 -129.27115,-78.574 -241.26426,-90.3847 -58.08456,-6.1255 -199.59821,-3.0815 -271.37502,5.8374 -10.97055,1.3632 -20.21388,2.2111 -20.54072,1.8843 -0.4999,-0.4999 72.70616,-141.23724 163.72114,-314.75096 l 22.48031,-42.85715 13.15134,-0.85367 c 25.84998,-1.67797 130.38372,19.63808 175.10449,35.70652 28.49677,10.23906 67.4834,30.09389 96.02989,48.90541 29.21443,19.2517 67.55971,56.95712 76.4552,75.17942 l 6.45517,13.2234 -0.74089,142.93053 -0.74091,142.9306 z"
       id="path3790"
       inkscape:connector-curvature="0"
       transform="matrix(0.26458333,0,0,0.26458333,241.26739,-608.13741)" />
    <path
       style="fill:#ffffff;stroke-width:2.85714293"
       d="m 869.20242,1076.8964 0.72962,-147.21121 9.24997,-14.41183 c 31.59596,-49.22778 118.14519,-105.98419 193.37229,-126.80777 39.1971,-10.85015 88.1849,-21.1892 128.7369,-27.17036 29.4366,-4.34172 31.5784,-4.32547 34.935,0.26504 6.3985,8.75046 187.2946,355.62513 186.0885,356.83123 -0.644,0.644 -9.4793,0.034 -19.6339,-1.3551 -73.0165,-9.99 -216.0211,-12.2992 -281.3202,-4.5428 -46.0241,5.4669 -96.571,16.1294 -125.60049,26.4947 -45.69321,16.3151 -99.95348,50.6672 -120.06004,76.0098 l -7.22728,9.1094 z"
       id="path3792"
       inkscape:connector-curvature="0"
       transform="matrix(0.26458333,0,0,0.26458333,241.26739,-608.13741)" />
    <path
       style="fill:#ffffff;stroke-width:2.85714293"
       d="m 1542.7892,1253.8445 c -200.8256,-46.1558 -298.1624,-60.171 -418.5714,-60.2687 -82.5022,-0.067 -132.92452,8.3279 -182.978,30.464 -9.05951,4.0065 -16.99672,6.7597 -17.63823,6.1182 -2.64145,-2.6414 50.09409,-34.8454 73.78995,-45.0613 57.71658,-24.883 107.83188,-34.0219 196.82628,-35.8928 81.3783,-1.7108 136.2568,2.8508 235.2608,19.5553 37.4649,6.3213 68.5525,11.0588 69.0835,10.5278 0.5311,-0.5311 -23.4703,-45.9494 -53.3363,-100.9297 -29.866,-54.9802 -60.0703,-111.34969 -67.1207,-125.26548 l -12.8189,-25.30143 18.0372,2.05744 c 9.9205,1.13159 20.0327,3.10486 22.4717,4.38503 2.439,1.28017 49.2877,74.09714 104.1082,161.81544 54.8206,87.7183 101.5086,162.3807 103.7513,165.9164 3.8139,6.0129 3.6406,6.4146 -2.6797,6.2133 -3.7164,-0.1184 -34.4,-6.5685 -68.1857,-14.3335 z"
       id="path3794"
       inkscape:connector-curvature="0"
       transform="matrix(0.26458333,0,0,0.26458333,241.26739,-608.13741)" />
    <path
       style="fill:#ffffff;stroke-width:2.85714293"
       d="m 158.14575,1157.679 c 120.83176,-192.67083 139.54789,-222.09975 142.3997,-223.90695 3.63341,-2.3025 37.06962,-5.79101 38.81132,-4.04931 0.73716,0.73716 -20.94824,42.84673 -48.18979,93.57686 -68.32451,127.2361 -83.42742,156.5227 -80.71597,156.5192 1.286,0 24.19532,-3.7583 50.9096,-8.348 106.26129,-18.2566 154.26535,-23.0539 230.82689,-23.0678 62.29846,-0.011 96.34237,3.1753 141.91649,13.2838 37.68494,8.3586 64.57542,17.5229 92.97091,31.6847 20.51877,10.2334 57.02551,34.6629 54.93029,36.7581 -0.64423,0.6443 -9.68186,-2.6875 -20.08366,-7.4039 -46.31114,-20.9985 -98.0974,-29.6048 -177.70377,-29.5325 -117.152,0.1065 -197.982,11.2735 -390.25791,53.9157 -52.7847,11.7064 -98.059145,21.2844 -100.609877,21.2844 -3.164066,0 17.424817,-35.1796 64.795777,-110.7143 z"
       id="path3796"
       inkscape:connector-curvature="0"
       transform="matrix(0.26458333,0,0,0.26458333,241.26739,-608.13741)" />
  </g>
  <g
     inkscape:groupmode="layer"
     id="layer2"
     inkscape:label="Layer 2"
     transform="translate(-241.26739,608.13741)"
     style="display:none">
    <text
       xml:space="preserve"
       style="font-style:normal;font-weight:normal;font-size:105.83332825px;line-height:1.25;font-family:sans-serif;letter-spacing:0px;word-spacing:0px;fill:#00b700;fill-opacity:1;stroke:none;stroke-width:2.64583325"
       x="69.590485"
       y="-95.971283"
       id="text3821"><tspan
         sodipodi:role="line"
         id="tspan3819"
         x="69.590485"
         y="-95.971283"
         style="font-style:normal;font-variant:normal;font-weight:normal;font-stretch:normal;font-size:169.33332825px;font-family:'Tw Cen MT';-inkscape-font-specification:'Tw Cen MT';fill:#00b700;fill-opacity:1;stroke-width:2.64583325">Sound it out</tspan></text>
  </g>
  <g
     inkscape:groupmode="layer"
     id="layer5"
     inkscape:label="closed book"
     style="display:none"
     transform="translate(-174.05776,-86.180542)">
    <path
       style="fill:#31c100;fill-opacity:1;stroke:#ff0000;stroke-width:0.99999994"
       d="m 968.12109,203.27539 c -88.63997,0 -160,76.50837 -160,171.54297 V 1664.1406 c 0,95.0346 71.36064,171.2128 160,171.541 l 1157.31671,4.2857 c 135.6569,0.5024 110.5679,-180.3663 11.9955,-181.847 l -112.3301,-1.6874 -918.5309,-7.2044 c -69.268,-0.5433 -125.03714,-50.2867 -125.03714,-112.75 0,-62.4633 55.76704,-112.748 125.03714,-112.748 l 1116.2683,3.5355 -4.5457,-1052.44764 c -0.4105,-95.03371 -71.36,-171.54297 -160,-171.54297 z"
       transform="scale(0.26458333)"
       id="rect4708"
       inkscape:connector-curvature="0"
       sodipodi:nodetypes="sssssscssscsss" />
  </g>
</svg>
